<svg width="170" height="169" viewBox="0 0 170 169" fill="none" xmlns="http://www.w3.org/2000/svg">
<g clip-path="url(#clip0_76_532)">
<path d="M134.473 77.3577H92.2782V35.1626C92.2782 33.2975 91.5373 31.5088 90.2185 30.1899C88.8996 28.8711 87.1109 28.1301 85.2457 28.1301C83.3806 28.1301 81.5919 28.8711 80.273 30.1899C78.9542 31.5088 78.2132 33.2975 78.2132 35.1626V77.3577H36.0182C34.1531 77.3577 32.3643 78.0986 31.0455 79.4174C29.7266 80.7363 28.9857 82.525 28.9857 84.3902C28.9857 86.2553 29.7266 88.044 31.0455 89.3629C32.3643 90.6817 34.1531 91.4227 36.0182 91.4227H78.2132V133.618C78.2132 135.483 78.9542 137.272 80.273 138.59C81.5919 139.909 83.3806 140.65 85.2457 140.65C87.1109 140.65 88.8996 139.909 90.2185 138.59C91.5373 137.272 92.2782 135.483 92.2782 133.618V91.4227H134.473C136.338 91.4227 138.127 90.6817 139.446 89.3629C140.765 88.044 141.506 86.2553 141.506 84.3902C141.506 82.525 140.765 80.7363 139.446 79.4174C138.127 78.0986 136.338 77.3577 134.473 77.3577Z" fill="#FFF"/>
</g>
<defs>
<clipPath id="clip0_76_532">
<rect width="168.78" height="168.78" fill="white" transform="translate(0.855591)"/>
</clipPath>
</defs>
</svg>
