<svg width="170" height="170" viewBox="0 0 170 170" fill="none" xmlns="http://www.w3.org/2000/svg">
<path d="M84.9085 14.5962C70.9995 14.5962 57.4029 18.7207 45.838 26.4481C34.2731 34.1755 25.2593 45.1588 19.9366 58.009C14.6139 70.8592 13.2212 84.9992 15.9347 98.641C18.6482 112.283 25.346 124.813 35.1812 134.649C45.0163 144.484 57.547 151.182 71.1888 153.895C84.8305 156.609 98.9705 155.216 111.821 149.893C124.671 144.57 135.654 135.557 143.382 123.992C151.109 112.427 155.234 98.8302 155.234 84.9212C155.234 75.686 153.415 66.5412 149.88 58.009C146.346 49.4768 141.166 41.7242 134.636 35.1939C128.106 28.6636 120.353 23.4835 111.821 19.9494C103.288 16.4152 94.1437 14.5962 84.9085 14.5962ZM84.9085 141.181C73.7813 141.181 62.904 137.882 53.6521 131.7C44.4002 125.518 37.1892 116.731 32.931 106.451C28.6728 96.1708 27.5587 84.8588 29.7295 73.9454C31.9003 63.0321 37.2585 53.0075 45.1266 45.1394C52.9947 37.2713 63.0193 31.913 73.9327 29.7422C84.8461 27.5714 96.1581 28.6856 106.438 32.9437C116.718 37.2019 125.505 44.4129 131.687 53.6648C137.869 62.9168 141.169 73.7941 141.169 84.9212C141.169 99.8423 135.241 114.152 124.69 124.703C114.14 135.254 99.8296 141.181 84.9085 141.181Z" fill="#FFF"/>
<path d="M84.9085 120.084C88.7924 120.084 91.941 116.935 91.941 113.051C91.941 109.167 88.7924 106.019 84.9085 106.019C81.0245 106.019 77.876 109.167 77.876 113.051C77.876 116.935 81.0245 120.084 84.9085 120.084Z" fill="#FFF"/>
<path d="M84.9085 49.759C83.0433 49.759 81.2546 50.5 79.9358 51.8188C78.6169 53.1377 77.876 54.9264 77.876 56.7915V91.9541C77.876 93.8192 78.6169 95.6079 79.9358 96.9268C81.2546 98.2456 83.0433 98.9866 84.9085 98.9866C86.7736 98.9866 88.5624 98.2456 89.8812 96.9268C91.2001 95.6079 91.941 93.8192 91.941 91.9541V56.7915C91.941 54.9264 91.2001 53.1377 89.8812 51.8188C88.5624 50.5 86.7736 49.759 84.9085 49.759Z" fill="#FFF"/>
</svg>
