<svg width="170" height="170" viewBox="0 0 170 170" fill="none" xmlns="http://www.w3.org/2000/svg">
<g clip-path="url(#clip0_76_533)">
<circle cx="84.9085" cy="84.7657" r="77.6388" fill="#C4C4C4" stroke="#FFF" stroke-width="13.5024"/>
<path d="M84.9085 77.7333C90.472 77.7333 95.9107 76.0835 100.537 72.9925C105.163 69.9016 108.768 65.5083 110.897 60.3682C113.026 55.2281 113.583 49.5721 112.498 44.1154C111.413 38.6587 108.733 33.6464 104.799 29.7124C100.865 25.7783 95.853 23.0992 90.3963 22.0138C84.9397 20.9284 79.2837 21.4855 74.1436 23.6145C69.0035 25.7436 64.6102 29.3491 61.5192 33.9751C58.4282 38.6011 56.7784 44.0397 56.7784 49.6033C56.7784 57.0638 59.7421 64.2188 65.0175 69.4942C70.2929 74.7696 77.4479 77.7333 84.9085 77.7333Z" fill="#FFF"/>
<path d="M128.309 155.653C130.228 155.653 132.067 154.809 133.424 153.305C134.781 151.802 135.543 149.762 135.543 147.636C135.543 132.752 130.208 118.478 120.712 107.954C111.217 97.4294 98.3375 91.5168 84.9086 91.5168C71.4796 91.5168 58.6006 97.4294 49.1049 107.954C39.6092 118.478 34.2745 132.752 34.2745 147.636C34.2745 149.762 35.0366 151.802 36.3932 153.305C37.7497 154.809 39.5895 155.653 41.508 155.653H128.309Z" fill="#FFF"/>
</g>
<defs>
<clipPath id="clip0_76_533">
<rect width="168.78" height="168.78" fill="white" transform="translate(0.518433 0.37561)"/>
</clipPath>
</defs>
</svg>
