<svg width="170" height="169" viewBox="0 0 170 169" fill="none" xmlns="http://www.w3.org/2000/svg">
<g clip-path="url(#clip0_76_534)">
<path d="M70.8821 133.617C69.239 133.621 67.6466 133.048 66.3813 132C65.6692 131.409 65.0806 130.684 64.6491 129.866C64.2177 129.048 63.9519 128.153 63.867 127.232C63.782 126.311 63.8797 125.382 64.1542 124.498C64.4288 123.615 64.8749 122.795 65.4671 122.084L96.9727 84.3898L66.5923 46.6253C66.0081 45.9059 65.5719 45.0782 65.3087 44.1897C65.0454 43.3013 64.9604 42.3695 65.0584 41.4481C65.1564 40.5266 65.4356 39.6336 65.8799 38.8204C66.3241 38.0072 66.9248 37.2898 67.6472 36.7094C68.3748 36.0692 69.2269 35.5863 70.15 35.291C71.0731 34.9957 72.0473 34.8944 73.0114 34.9935C73.9755 35.0925 74.9087 35.3898 75.7525 35.8666C76.5963 36.3434 77.3324 36.9895 77.9146 37.7643L111.882 79.9593C112.916 81.2177 113.481 82.7961 113.481 84.425C113.481 86.0539 112.916 87.6323 111.882 88.8906L76.7191 131.086C76.0136 131.937 75.1175 132.609 74.1033 133.049C73.0891 133.489 71.9856 133.684 70.8821 133.617Z" fill="#FFF"/>
</g>
<defs>
<clipPath id="clip0_76_534">
<rect width="168.78" height="168.78" fill="white" transform="translate(0.557129)"/>
</clipPath>
</defs>
</svg>
