<svg width="169" height="169" viewBox="0 0 169 169" fill="none" xmlns="http://www.w3.org/2000/svg">
<g clip-path="url(#clip0_76_535)">
<path d="M73.7801 126.585C71.5717 126.572 69.3909 126.093 67.3806 125.179C65.2063 124.22 63.3538 122.656 62.0445 120.673C60.7351 118.691 60.0241 116.373 59.9964 113.997V54.7832C60.0241 52.4072 60.7351 50.0894 62.0445 48.1066C63.3538 46.1239 65.2063 44.5599 67.3806 43.6015C69.8823 42.4198 72.6657 41.9647 75.4136 42.2879C78.1614 42.6112 80.7632 43.6999 82.9224 45.4299L118.788 75.0368C120.195 76.1565 121.33 77.5789 122.111 79.1983C122.892 80.8177 123.297 82.5923 123.297 84.39C123.297 86.1877 122.892 87.9623 122.111 89.5817C121.33 91.2011 120.195 92.6235 118.788 93.7432L82.9224 123.35C80.3371 125.447 77.1087 126.589 73.7801 126.585Z" fill="#FFF"/>
</g>
<defs>
<clipPath id="clip0_76_535">
<rect width="168.78" height="168.78" fill="white" transform="translate(0.219971)"/>
</clipPath>
</defs>
</svg>
