<svg width="169" height="170" viewBox="0 0 169 170" fill="none" xmlns="http://www.w3.org/2000/svg">
<g clip-path="url(#clip0_76_861)">
<path d="M147.837 42.5064H112.674V30.7621C112.509 26.2601 110.566 22.0071 107.27 18.9355C103.974 15.864 99.5953 14.2244 95.0927 14.3764H73.9952C69.4927 14.2244 65.1136 15.864 61.8179 18.9355C58.5223 22.0071 56.5789 26.2601 56.414 30.7621V42.5064H21.2514C19.3863 42.5064 17.5976 43.2473 16.2787 44.5662C14.9599 45.885 14.2189 47.6738 14.2189 49.5389C14.2189 51.404 14.9599 53.1928 16.2787 54.5116C17.5976 55.8305 19.3863 56.5714 21.2514 56.5714H28.2839V133.929C28.2839 139.524 30.5067 144.891 34.4633 148.847C38.4198 152.804 43.786 155.026 49.3815 155.026H119.706C125.302 155.026 130.668 152.804 134.625 148.847C138.581 144.891 140.804 139.524 140.804 133.929V56.5714H147.837C149.702 56.5714 151.49 55.8305 152.809 54.5116C154.128 53.1928 154.869 51.404 154.869 49.5389C154.869 47.6738 154.128 45.885 152.809 44.5662C151.49 43.2473 149.702 42.5064 147.837 42.5064ZM70.479 30.7621C70.479 29.6369 71.9558 28.4414 73.9952 28.4414H95.0927C97.1322 28.4414 98.609 29.6369 98.609 30.7621V42.5064H70.479V30.7621ZM126.739 133.929C126.739 135.794 125.998 137.583 124.679 138.902C123.36 140.221 121.572 140.961 119.706 140.961H49.3815C47.5163 140.961 45.7276 140.221 44.4087 138.902C43.0899 137.583 42.3489 135.794 42.3489 133.929V56.5714H126.739V133.929Z" fill="#FFF"/>
<path d="M63.4465 119.864C65.3116 119.864 67.1004 119.123 68.4192 117.804C69.7381 116.485 70.479 114.696 70.479 112.831V84.7013C70.479 82.8362 69.7381 81.0474 68.4192 79.7286C67.1004 78.4097 65.3116 77.6688 63.4465 77.6688C61.5814 77.6688 59.7926 78.4097 58.4738 79.7286C57.1549 81.0474 56.414 82.8362 56.414 84.7013V112.831C56.414 114.696 57.1549 116.485 58.4738 117.804C59.7926 119.123 61.5814 119.864 63.4465 119.864Z" fill="#FFF"/>
<path d="M105.642 119.864C107.507 119.864 109.295 119.123 110.614 117.804C111.933 116.485 112.674 114.696 112.674 112.831V84.7013C112.674 82.8362 111.933 81.0474 110.614 79.7286C109.295 78.4097 107.507 77.6688 105.642 77.6688C103.776 77.6688 101.988 78.4097 100.669 79.7286C99.3499 81.0474 98.609 82.8362 98.609 84.7013V112.831C98.609 114.696 99.3499 116.485 100.669 117.804C101.988 119.123 103.776 119.864 105.642 119.864Z" fill="#FFF"/>
</g>
<defs>
<clipPath id="clip0_76_861">
<rect width="168.78" height="168.78" fill="white" transform="translate(0.154175 0.311401)"/>
</clipPath>
</defs>
</svg>
