<svg width="169" height="169" viewBox="0 0 169 169" fill="none" xmlns="http://www.w3.org/2000/svg">
<path d="M126.624 28.1298H119.591V21.0973C119.591 19.2322 118.85 17.4434 117.531 16.1246C116.212 14.8057 114.424 14.0648 112.559 14.0648C110.693 14.0648 108.905 14.8057 107.586 16.1246C106.267 17.4434 105.526 19.2322 105.526 21.0973V28.1298H63.331V21.0973C63.331 19.2322 62.5901 17.4434 61.2712 16.1246C59.9524 14.8057 58.1636 14.0648 56.2985 14.0648C54.4334 14.0648 52.6446 14.8057 51.3258 16.1246C50.0069 17.4434 49.266 19.2322 49.266 21.0973V28.1298H42.2335C36.6381 28.1298 31.2719 30.3526 27.3153 34.3091C23.3588 38.2657 21.136 43.6319 21.136 49.2273V133.617C21.136 139.213 23.3588 144.579 27.3153 148.536C31.2719 152.492 36.6381 154.715 42.2335 154.715H126.624C132.219 154.715 137.585 152.492 141.542 148.536C145.498 144.579 147.721 139.213 147.721 133.617V49.2273C147.721 43.6319 145.498 38.2657 141.542 34.3091C137.585 30.3526 132.219 28.1298 126.624 28.1298ZM42.2335 42.1948H49.266V49.2273C49.266 51.0925 50.0069 52.8812 51.3258 54.2001C52.6446 55.5189 54.4334 56.2598 56.2985 56.2598C58.1636 56.2598 59.9524 55.5189 61.2712 54.2001C62.5901 52.8812 63.331 51.0925 63.331 49.2273V42.1948H105.526V49.2273C105.526 51.0925 106.267 52.8812 107.586 54.2001C108.905 55.5189 110.693 56.2598 112.559 56.2598C114.424 56.2598 116.212 55.5189 117.531 54.2001C118.85 52.8812 119.591 51.0925 119.591 49.2273V42.1948H126.624C128.489 42.1948 130.277 42.9358 131.596 44.2546C132.915 45.5735 133.656 47.3622 133.656 49.2273V77.3574H35.201V49.2273C35.201 47.3622 35.9419 45.5735 37.2608 44.2546C38.5796 42.9358 40.3684 42.1948 42.2335 42.1948ZM126.624 140.65H42.2335C40.3684 140.65 38.5796 139.909 37.2608 138.59C35.9419 137.271 35.201 135.483 35.201 133.617V91.4224H133.656V133.617C133.656 135.483 132.915 137.271 131.596 138.59C130.277 139.909 128.489 140.65 126.624 140.65Z" fill="#FFF"/>
<path d="M56.2987 119.553C60.1827 119.553 63.3312 116.404 63.3312 112.52C63.3312 108.636 60.1827 105.488 56.2987 105.488C52.4148 105.488 49.2662 108.636 49.2662 112.52C49.2662 116.404 52.4148 119.553 56.2987 119.553Z" fill="#FFF"/>
<path d="M112.559 105.488H84.4285C82.5634 105.488 80.7746 106.229 79.4558 107.547C78.1369 108.866 77.396 110.655 77.396 112.52C77.396 114.385 78.1369 116.174 79.4558 117.493C80.7746 118.812 82.5634 119.553 84.4285 119.553H112.559C114.424 119.553 116.212 118.812 117.531 117.493C118.85 116.174 119.591 114.385 119.591 112.52C119.591 110.655 118.85 108.866 117.531 107.547C116.212 106.229 114.424 105.488 112.559 105.488Z" fill="#FFF"/>
</svg>
