<svg width="169" height="169" viewBox="0 0 169 169" fill="none" xmlns="http://www.w3.org/2000/svg">
<path d="M134.284 34.7154C122.731 23.0861 107.481 15.8523 91.1657 14.2611C74.85 12.6699 58.4904 16.821 44.9073 25.9988C31.3242 35.1766 21.3688 48.8059 16.7574 64.537C12.146 80.2681 13.1676 97.1152 19.6461 112.174C20.3213 113.573 20.5429 115.149 20.2799 116.68L14.0832 146.467C13.8444 147.609 13.8932 148.792 14.2251 149.911C14.5569 151.029 15.1615 152.048 15.9844 152.875C16.6591 153.544 17.4623 154.071 18.3457 154.421C19.2292 154.772 20.1746 154.941 21.1249 154.917H22.5332L52.6715 148.861C54.2033 148.677 55.7566 148.895 57.1782 149.495C72.2368 155.973 89.0839 156.995 104.815 152.383C120.546 147.772 134.175 137.817 143.353 124.233C152.531 110.65 156.682 94.2907 155.091 77.9751C153.5 61.6594 146.266 46.4101 134.637 34.8563L134.284 34.7154ZM140.129 93.5838C138.752 101.991 135.486 109.977 130.577 116.94C125.668 123.903 119.244 129.662 111.787 133.784C104.331 137.905 96.0369 140.281 87.5293 140.734C79.0218 141.187 70.5223 139.704 62.6707 136.397C59.886 135.213 56.8946 134.59 53.8686 134.566C52.5467 134.576 51.2279 134.693 49.9253 134.918L30.0678 138.932L34.0815 119.075C34.8809 114.774 34.3656 110.332 32.6028 106.329C29.2959 98.4775 27.8131 89.9781 28.2658 81.4705C28.7184 72.963 31.0949 64.6689 35.2162 57.2125C39.3376 49.7561 45.0965 43.3316 52.0596 38.4225C59.0226 33.5134 67.0085 30.2476 75.4161 28.8709C84.2412 27.4225 93.2844 28.0961 101.798 30.8359C110.311 33.5757 118.049 38.303 124.373 44.6268C130.697 50.9506 135.424 58.6892 138.164 67.2023C140.904 75.7155 141.577 84.7586 140.129 93.5838Z" fill="#FFF"/>
<g clip-path="url(#clip0_230_16)">
<path d="M88.3773 125.75H80.5811C78.7431 125.75 76.9804 125.02 75.6808 123.72C74.3812 122.421 73.6511 120.658 73.6511 118.82V114.324C73.6287 114.059 73.5316 113.806 73.3709 113.594C73.2102 113.382 72.9927 113.22 72.7436 113.127C72.4912 112.966 72.1977 112.88 71.8979 112.88C71.5982 112.88 71.3047 112.966 71.0523 113.127L67.9998 116.427C67.3595 117.072 66.598 117.584 65.759 117.933C64.9201 118.282 64.0204 118.462 63.1117 118.462C62.203 118.462 61.3033 118.282 60.4643 117.933C59.6254 117.584 58.8639 117.072 58.2236 116.427L52.5723 110.9C51.9182 110.261 51.3987 109.497 51.0444 108.654C50.6902 107.811 50.5084 106.906 50.5098 105.991C50.5125 104.121 51.2537 102.327 52.5723 101L55.6248 97.9474C55.7722 97.7202 55.8506 97.4551 55.8506 97.1843C55.8506 96.9135 55.7722 96.6484 55.6248 96.4212C55.3773 95.8024 54.9648 95.3487 54.3873 95.3487H50.1798C48.3381 95.3378 46.5755 94.5985 45.277 93.2923C43.9786 91.9861 43.2498 90.2192 43.2498 88.3774V80.5812C43.2498 78.7432 43.9799 76.9806 45.2796 75.6809C46.5792 74.3813 48.3419 73.6512 50.1798 73.6512H54.6761C54.941 73.6288 55.1941 73.5317 55.4059 73.371C55.6177 73.2103 55.7794 72.9928 55.8723 72.7437C56.034 72.4913 56.12 72.1978 56.12 71.8981C56.12 71.5983 56.034 71.3048 55.8723 71.0524L52.5723 67.9999C51.9275 67.3596 51.4158 66.5981 51.0665 65.7592C50.7173 64.9202 50.5375 64.0205 50.5375 63.1118C50.5375 62.2031 50.7173 61.3034 51.0665 60.4645C51.4158 59.6255 51.9275 58.864 52.5723 58.2237L58.0998 52.5724C58.7326 51.9214 59.4892 51.4035 60.3251 51.0493C61.1611 50.6951 62.0594 50.5117 62.9673 50.5099C63.9006 50.5058 64.8255 50.6859 65.689 51.0398C66.5526 51.3937 67.3379 51.9146 67.9998 52.5724L71.0523 55.6249C71.2796 55.7723 71.5446 55.8507 71.8154 55.8507C72.0863 55.8507 72.3513 55.7723 72.5786 55.6249C73.1973 55.3774 73.6511 54.9649 73.6511 54.3874V50.1799C73.662 48.3382 74.4012 46.5756 75.7074 45.2772C77.0136 43.9787 78.7805 43.2499 80.6223 43.2499H88.6248C90.4628 43.2499 92.2254 43.9801 93.5251 45.2797C94.8247 46.5793 95.5548 48.342 95.5548 50.1799V54.6762C95.5772 54.9411 95.6743 55.1942 95.835 55.406C95.9957 55.6178 96.2132 55.7796 96.4623 55.8724C96.7147 56.0341 97.0082 56.1201 97.3079 56.1201C97.6077 56.1201 97.9012 56.0341 98.1536 55.8724L101 52.5724C101.64 51.9276 102.402 51.4159 103.241 51.0667C104.08 50.7175 104.979 50.5377 105.888 50.5377C106.797 50.5377 107.696 50.7175 108.535 51.0667C109.374 51.4159 110.136 51.9276 110.776 52.5724L116.427 58.0999C117.08 58.7404 117.598 59.5042 117.952 60.347C118.306 61.1898 118.489 62.0946 118.49 63.0087C118.51 63.938 118.337 64.8614 117.982 65.7205C117.627 66.5796 117.097 67.3557 116.427 67.9999L113.375 71.0524C113.227 71.2797 113.149 71.5447 113.149 71.8156C113.149 72.0864 113.227 72.3514 113.375 72.5787C113.622 73.1974 114.035 73.6512 114.612 73.6512H119.109C120.9 73.7361 122.589 74.5078 123.826 75.8061C125.063 77.1044 125.752 78.8293 125.75 80.6224V88.6249C125.75 90.4629 125.02 92.2256 123.72 93.5252C122.42 94.8248 120.658 95.5549 118.82 95.5549H114.324C114.059 95.5773 113.806 95.6744 113.594 95.8351C113.382 95.9958 113.22 96.2133 113.127 96.4624C112.98 96.6897 112.902 96.9547 112.902 97.2256C112.902 97.4964 112.98 97.7614 113.127 97.9887L116.304 101.165C116.948 101.805 117.46 102.567 117.809 103.406C118.159 104.245 118.338 105.144 118.338 106.053C118.338 106.962 118.159 107.861 117.809 108.7C117.46 109.539 116.948 110.301 116.304 110.941L110.9 116.427C110.267 117.078 109.51 117.596 108.674 117.951C107.839 118.305 106.94 118.488 106.032 118.49C104.19 118.466 102.43 117.726 101.124 116.427L97.9473 113.375C97.7201 113.228 97.455 113.149 97.1842 113.149C96.9133 113.149 96.6483 113.228 96.4211 113.375C95.8023 113.622 95.3486 114.035 95.3486 114.612V119.109C95.2637 120.9 94.4919 122.589 93.1936 123.826C91.8954 125.063 90.1704 125.752 88.3773 125.75ZM81.9011 117.5H87.0986V114.324C87.1161 112.421 87.6978 110.567 88.7699 108.996C89.842 107.424 91.3563 106.206 93.1211 105.496C94.893 104.722 96.8556 104.492 98.7583 104.838C100.661 105.183 102.418 106.087 103.805 107.435L106.032 109.662L109.662 106.032L107.435 103.764C106.096 102.398 105.192 100.665 104.84 98.7846C104.487 96.9045 104.701 94.962 105.455 93.2037C106.171 91.4466 107.392 89.941 108.963 88.8766C110.534 87.8122 112.385 87.2366 114.282 87.2224H117.5V81.9012H114.324C112.421 81.8836 110.567 81.302 108.996 80.2299C107.424 79.1578 106.206 77.6434 105.496 75.8787C104.722 74.1067 104.492 72.1442 104.838 70.2414C105.183 68.3386 106.087 66.5818 107.435 65.1949L109.662 62.9674L106.032 59.3374L103.764 61.5649C102.376 62.832 100.656 63.6763 98.8053 63.9985C96.9544 64.3207 95.05 64.1073 93.3163 63.3835C91.5826 62.6597 90.0918 61.4556 89.0195 59.9129C87.9472 58.3703 87.338 56.5534 87.2636 54.6762V51.4999H81.9011V54.6762C81.8835 56.5784 81.3018 58.4327 80.2297 60.0041C79.1576 61.5755 77.6433 62.7935 75.8786 63.5037C74.1066 64.2782 72.1441 64.5075 70.2413 64.1622C68.3385 63.8169 66.5817 62.9127 65.1948 61.5649L62.9673 59.3374L59.3373 62.9674L61.5648 65.2362C62.8319 66.6233 63.6762 68.3436 63.9984 70.1945C64.3205 72.0454 64.1072 73.9498 63.3834 75.6835C62.6595 77.4171 61.4554 78.9079 59.9128 79.9802C58.3702 81.0526 56.5533 81.6618 54.6761 81.7362H51.4998V86.9337H54.6761C56.5783 86.9513 58.4325 87.5329 60.004 88.605C61.5754 89.6771 62.7933 91.1914 63.5036 92.9562C64.2781 94.7282 64.5074 96.6907 64.1621 98.5935C63.8168 100.496 62.9126 102.253 61.5648 103.64L59.3373 105.867L62.9673 109.497L65.2361 107.27C66.6232 106.003 68.3435 105.159 70.1944 104.836C72.0452 104.514 73.9496 104.728 75.6833 105.451C77.417 106.175 78.9078 107.379 79.9801 108.922C81.0524 110.465 81.6617 112.281 81.7361 114.159L81.9011 117.5Z" fill="#FFF"/>
<path d="M84.5001 98.9376C81.6446 98.9376 78.8533 98.0908 76.479 96.5044C74.1048 94.918 72.2543 92.6632 71.1616 90.0251C70.0688 87.387 69.7829 84.4841 70.34 81.6835C70.8971 78.8829 72.2721 76.3103 74.2912 74.2912C76.3103 72.2721 78.8829 70.8971 81.6835 70.34C84.4841 69.7829 87.387 70.0688 90.0251 71.1616C92.6632 72.2543 94.918 74.1048 96.5044 76.479C98.0908 78.8533 98.9376 81.6446 98.9376 84.5001C98.9376 88.3291 97.4165 92.0014 94.7089 94.7089C92.0014 97.4165 88.3291 98.9376 84.5001 98.9376ZM84.5001 78.3126C83.2763 78.3126 82.08 78.6755 81.0625 79.3554C80.045 80.0352 79.2519 81.0016 78.7836 82.1322C78.3153 83.2628 78.1927 84.5069 78.4315 85.7072C78.6702 86.9075 79.2595 88.01 80.1248 88.8753C80.9902 89.7406 82.0927 90.3299 83.293 90.5687C84.4932 90.8074 85.7373 90.6849 86.8679 90.2166C87.9985 89.7483 88.9649 88.9552 89.6448 87.9377C90.3247 86.9201 90.6876 85.7238 90.6876 84.5001C90.6876 82.859 90.0357 81.2852 88.8753 80.1248C87.7149 78.9645 86.1411 78.3126 84.5001 78.3126Z" fill="#FFF"/>
</g>
<defs>
<clipPath id="clip0_230_16">
<rect width="99" height="99" fill="white" transform="translate(35 35)"/>
</clipPath>
</defs>
</svg>
