<svg width="169" height="169" viewBox="0 0 169 169" fill="none" xmlns="http://www.w3.org/2000/svg">
<g clip-path="url(#clip0_76_537)">
<path d="M126.624 35.3181V28.2856C126.624 24.5553 125.142 20.9778 122.504 18.3401C119.866 15.7024 116.289 14.2206 112.559 14.2206H56.2985C52.5682 14.2206 48.9907 15.7024 46.353 18.3401C43.7153 20.9778 42.2335 24.5553 42.2335 28.2856V35.3181C36.6381 35.3181 31.2719 37.5409 27.3153 41.4974C23.3588 45.454 21.136 50.8202 21.136 56.4156V133.773C21.136 139.369 23.3588 144.735 27.3153 148.691C31.2719 152.648 36.6381 154.871 42.2335 154.871H126.624C132.219 154.871 137.585 152.648 141.542 148.691C145.498 144.735 147.721 139.369 147.721 133.773V56.4156C147.721 50.8202 145.498 45.454 141.542 41.4974C137.585 37.5409 132.219 35.3181 126.624 35.3181ZM56.2985 28.2856H112.559V56.4156H56.2985V28.2856ZM133.656 133.773C133.656 135.638 132.915 137.427 131.596 138.746C130.277 140.065 128.489 140.806 126.624 140.806H42.2335C40.3684 140.806 38.5796 140.065 37.2608 138.746C35.9419 137.427 35.201 135.638 35.201 133.773V56.4156C35.201 54.5505 35.9419 52.7617 37.2608 51.4429C38.5796 50.124 40.3684 49.3831 42.2335 49.3831V56.4156C42.2335 60.1459 43.7153 63.7234 46.353 66.3611C48.9907 68.9988 52.5682 70.4806 56.2985 70.4806H112.559C116.289 70.4806 119.866 68.9988 122.504 66.3611C125.142 63.7234 126.624 60.1459 126.624 56.4156V49.3831C128.489 49.3831 130.277 50.124 131.596 51.4429C132.915 52.7617 133.656 54.5505 133.656 56.4156V133.773Z" fill="#FFF"/>
</g>
<defs>
<clipPath id="clip0_76_537">
<rect width="168.78" height="168.78" fill="white" transform="translate(0.0385742 0.155762)"/>
</clipPath>
</defs>
</svg>
