<svg width="169" height="170" viewBox="0 0 169 170" fill="none" xmlns="http://www.w3.org/2000/svg">
<g clip-path="url(#clip0_76_538)">
<path d="M133.695 14.5964H104.299C101.345 6.43868 93.6093 0.531372 84.4671 0.531372C75.3248 0.531372 67.5891 6.43868 64.6354 14.5964H35.2396C27.5038 14.5964 21.1746 20.9256 21.1746 28.6614V141.181C21.1746 148.917 27.5038 155.246 35.2396 155.246H133.695C141.43 155.246 147.76 148.917 147.76 141.181V28.6614C147.76 20.9256 141.43 14.5964 133.695 14.5964ZM84.4671 14.5964C88.335 14.5964 91.4996 17.761 91.4996 21.6289C91.4996 25.4968 88.335 28.6614 84.4671 28.6614C80.5992 28.6614 77.4346 25.4968 77.4346 21.6289C77.4346 17.761 80.5992 14.5964 84.4671 14.5964ZM133.695 141.181H35.2396V28.6614H49.3046V49.7589H119.63V28.6614H133.695V141.181Z" fill="#FFF"/>
</g>
<defs>
<clipPath id="clip0_76_538">
<rect width="168.78" height="168.78" fill="white" transform="translate(0.0771484 0.531372)"/>
</clipPath>
</defs>
</svg>
