<svg width="170" height="169" viewBox="0 0 170 169" fill="none" xmlns="http://www.w3.org/2000/svg">
<path d="M137.275 51.6472L118.006 32.3781C115.491 30.0159 112.196 28.6605 108.746 28.5697C105.297 28.4789 101.935 29.6591 99.2995 31.8859L36.0069 95.1784C33.7338 97.4707 32.3184 100.475 31.9984 103.688L28.9744 133.013C28.8797 134.043 29.0134 135.082 29.3659 136.054C29.7184 137.026 30.2811 137.909 31.0139 138.639C31.671 139.291 32.4503 139.807 33.3071 140.157C34.1639 140.507 35.0814 140.684 36.0069 140.679H36.6399L65.9654 138.006C69.1778 137.686 72.1824 136.271 74.4747 133.998L137.767 70.7053C140.224 68.1101 141.551 64.6468 141.459 61.0745C141.367 57.5022 139.862 54.1121 137.275 51.6472ZM64.6996 123.941L43.602 125.91L45.5008 104.813L85.2345 65.5715L104.222 84.5593L64.6996 123.941ZM113.364 75.1358L94.5174 56.2886L108.231 42.2236L127.429 61.4224L113.364 75.1358Z" fill="#FFF"/>
</svg>
