<svg width="170" height="170" viewBox="0 0 170 170" fill="none" xmlns="http://www.w3.org/2000/svg">
<g clip-path="url(#clip0_76_536)">
<path d="M84.7655 14.845C123.606 14.845 155.091 46.3295 155.091 85.17C155.091 124.011 123.606 155.495 84.7655 155.495C45.925 155.495 14.4404 124.011 14.4404 85.17C14.4404 46.3295 45.925 14.845 84.7655 14.845ZM84.7655 28.91C69.8444 28.91 55.5344 34.8374 44.9836 45.3882C34.4328 55.939 28.5054 70.2489 28.5054 85.17C28.5054 100.091 34.4328 114.401 44.9836 124.952C55.5344 135.503 69.8444 141.43 84.7655 141.43C99.6866 141.43 113.997 135.503 124.547 124.952C135.098 114.401 141.026 100.091 141.026 85.17C141.026 70.2489 135.098 55.939 124.547 45.3882C113.997 34.8374 99.6866 28.91 84.7655 28.91ZM119.928 92.2025C119.928 101.528 116.223 110.472 109.629 117.066C103.035 123.66 94.0911 127.365 84.7655 127.365C75.4398 127.365 66.4961 123.66 59.9018 117.066C53.3076 110.472 49.603 101.528 49.603 92.2025H119.928Z" fill="#FFF"/>
</g>
<defs>
<clipPath id="clip0_76_536">
<rect width="168.78" height="168.78" fill="white" transform="translate(0.37561 0.780273)"/>
</clipPath>
</defs>
</svg>
