<svg width="170" height="170" viewBox="0 0 170 170" fill="none" xmlns="http://www.w3.org/2000/svg">
<g clip-path="url(#clip0_76_542)">
<path d="M85.2455 14.5962C71.3366 14.5962 57.7399 18.7207 46.175 26.4481C34.6101 34.1755 25.5964 45.1588 20.2737 58.009C14.9509 70.8592 13.5583 84.9992 16.2718 98.641C18.9853 112.283 25.6831 124.813 35.5182 134.649C45.3534 144.484 57.8841 151.182 71.5258 153.895C85.1675 156.609 99.3075 155.216 112.158 149.893C125.008 144.57 135.991 135.557 143.719 123.992C151.446 112.427 155.571 98.8302 155.571 84.9212C155.571 75.686 153.752 66.5412 150.217 58.009C146.683 49.4768 141.503 41.7242 134.973 35.1939C128.443 28.6636 120.69 23.4835 112.158 19.9494C103.626 16.4152 94.4808 14.5962 85.2455 14.5962ZM85.2455 141.181C74.1184 141.181 63.2411 137.882 53.9891 131.7C44.7372 125.518 37.5262 116.731 33.2681 106.451C29.0099 96.1708 27.8957 84.8588 30.0665 73.9454C32.2373 63.0321 37.5956 53.0075 45.4637 45.1394C53.3318 37.2713 63.3564 31.913 74.2698 29.7422C85.1831 27.5714 96.4951 28.6856 106.775 32.9437C117.055 37.2019 125.842 44.4129 132.024 53.6648C138.206 62.9168 141.506 73.7941 141.506 84.9212C141.506 99.8423 135.578 114.152 125.027 124.703C114.477 135.254 100.167 141.181 85.2455 141.181Z" fill="#FF0000"/>
<path d="M104.304 65.8628C103.65 65.2037 102.872 64.6805 102.015 64.3234C101.158 63.9664 100.239 63.7826 99.3106 63.7826C98.3823 63.7826 97.4631 63.9664 96.6061 64.3234C95.7491 64.6805 94.9713 65.2037 94.3176 65.8628L85.2456 75.0051L76.1737 65.8628C74.8494 64.5385 73.0534 63.7946 71.1806 63.7946C69.3078 63.7946 67.5118 64.5385 66.1875 65.8628C64.8633 67.187 64.1193 68.9831 64.1193 70.8559C64.1193 72.7286 64.8633 74.5247 66.1875 75.849L75.3298 84.9209L66.1875 93.9928C65.5284 94.6466 65.0052 95.4244 64.6482 96.2814C64.2911 97.1383 64.1073 98.0575 64.1073 98.9859C64.1073 99.9143 64.2911 100.833 64.6482 101.69C65.0052 102.547 65.5284 103.325 66.1875 103.979C66.8413 104.638 67.6191 105.161 68.4761 105.518C69.333 105.875 70.2522 106.059 71.1806 106.059C72.109 106.059 73.0282 105.875 73.8851 105.518C74.7421 105.161 75.5199 104.638 76.1737 103.979L85.2456 94.8367L94.3176 103.979C94.9713 104.638 95.7491 105.161 96.6061 105.518C97.4631 105.875 98.3823 106.059 99.3106 106.059C100.239 106.059 101.158 105.875 102.015 105.518C102.872 105.161 103.65 104.638 104.304 103.979C104.963 103.325 105.486 102.547 105.843 101.69C106.2 100.833 106.384 99.9143 106.384 98.9859C106.384 98.0575 106.2 97.1383 105.843 96.2814C105.486 95.4244 104.963 94.6466 104.304 93.9928L95.1615 84.9209L104.304 75.849C104.963 75.1952 105.486 74.4174 105.843 73.5604C106.2 72.7034 106.384 71.7842 106.384 70.8559C106.384 69.9275 106.2 69.0083 105.843 68.1513C105.486 67.2944 104.963 66.5166 104.304 65.8628Z" fill="#FF0000"/>
</g>
<defs>
<clipPath id="clip0_76_542">
<rect width="168.78" height="168.78" fill="white" transform="translate(0.855591 0.531372)"/>
</clipPath>
</defs>
</svg>
