<svg width="169" height="170" viewBox="0 0 169 170" fill="none" xmlns="http://www.w3.org/2000/svg">
<g clip-path="url(#clip0_76_546)">
<path d="M97.7518 155.651C96.2302 155.651 94.7496 155.158 93.5323 154.245L65.4023 132.795C64.5418 132.133 63.8464 131.28 63.3705 130.304C62.8947 129.328 62.6514 128.255 62.6596 127.169V104.173L28.9036 39.3334C28.3477 38.2604 28.0776 37.0621 28.1196 35.8544C28.1615 34.6466 28.514 33.47 29.1431 32.438C29.7721 31.4061 30.6565 30.5537 31.7108 29.9631C32.7652 29.3724 33.954 29.0635 35.1625 29.066H133.618C134.838 29.0662 136.037 29.384 137.098 29.9882C138.158 30.5924 139.043 31.4621 139.666 32.5119C140.283 33.581 140.608 34.7937 140.608 36.0282C140.608 37.2626 140.283 38.4753 139.666 39.5444L104.503 104.314V148.619C104.512 149.929 104.155 151.216 103.471 152.335C102.788 153.453 101.806 154.358 100.635 154.948C99.735 155.385 98.752 155.624 97.7518 155.651ZM76.6543 123.723L90.7193 134.483V102.485C90.7149 101.414 90.9554 100.355 91.4225 99.391L121.662 43.131H46.6958L75.7401 99.391C76.2529 100.392 76.5182 101.501 76.5136 102.626L76.6543 123.723Z" fill="#FFF"/>
</g>
<defs>
<clipPath id="clip0_76_546">
<rect width="168.78" height="168.78" fill="white" transform="translate(0 0.935791)"/>
</clipPath>
</defs>
</svg>
