<svg width="169" height="169" viewBox="0 0 169 169" fill="none" xmlns="http://www.w3.org/2000/svg">
<path d="M143.604 71.5908L89.3832 16.1747C88.7295 15.5155 87.9517 14.9924 87.0947 14.6353C86.2377 14.2783 85.3185 14.0945 84.3901 14.0945C83.4618 14.0945 82.5426 14.2783 81.6856 14.6353C80.8286 14.9924 80.0508 15.5155 79.3971 16.1747L25.1765 71.6611C23.8645 72.9837 22.8283 74.5538 22.1281 76.2801C21.4279 78.0065 21.0776 79.8548 21.0976 81.7176V140.65C21.0922 144.25 22.4674 147.715 24.94 150.332C27.4126 152.948 30.7945 154.517 34.389 154.715H134.391C137.986 154.517 141.368 152.948 143.84 150.332C146.313 147.715 147.688 144.25 147.683 140.65V81.7176C147.688 77.9407 146.226 74.3095 143.604 71.5908ZM70.3251 140.65V98.455H98.4552V140.65H70.3251ZM133.618 140.65H112.52V91.4225C112.52 89.5573 111.779 87.7686 110.46 86.4497C109.142 85.1309 107.353 84.39 105.488 84.39H63.2926C61.4275 84.39 59.6388 85.1309 58.3199 86.4497C57.0011 87.7686 56.2601 89.5573 56.2601 91.4225V140.65H35.1626V81.4363L84.3901 31.1539L133.618 81.7176V140.65Z" fill="#FFF"/>
</svg>
