<svg width="169" height="169" viewBox="0 0 169 169" fill="none" xmlns="http://www.w3.org/2000/svg">
<path d="M137.134 42.195C127.921 42.195 120.467 49.2978 119.693 58.3698C106.472 54.8535 99.7209 45.7113 84.39 45.7113C68.9888 45.7113 62.308 54.8535 49.0869 58.3698C48.3133 49.3682 40.8588 42.195 31.6463 42.195C21.9414 42.195 14.065 50.0714 14.065 59.7763V63.2925C14.065 105.488 39.382 118.216 59.9169 119.412C67.0197 123.913 75.3884 126.585 84.39 126.585C93.3916 126.585 101.76 123.913 108.863 119.412C129.398 118.216 154.715 105.488 154.715 63.2925V59.7763C154.715 50.0714 146.839 42.195 137.134 42.195ZM24.6138 63.2925V59.7763C24.6138 55.9084 27.7784 52.7438 31.6463 52.7438C35.5141 52.7438 38.6788 55.9084 38.6788 59.7763V80.8738C38.6788 89.8754 41.3511 98.244 45.7816 105.347C35.0922 100.354 24.6138 88.9611 24.6138 63.2925ZM49.2275 80.8738V69.2701C57.1039 67.6527 62.9409 64.4177 67.934 61.675C73.7006 58.5807 77.8498 56.26 84.39 56.26C90.9302 56.26 95.0794 58.5807 100.846 61.7454C105.839 64.488 111.676 67.6527 119.553 69.3405V80.9441C119.553 100.354 103.8 116.107 84.39 116.107C64.9803 116.107 49.2275 100.283 49.2275 80.8738ZM144.166 63.2925C144.166 88.9611 133.688 100.354 122.998 105.347C127.499 98.244 130.101 89.8754 130.101 80.8738V59.7763C130.101 55.9084 133.266 52.7438 137.134 52.7438C141.002 52.7438 144.166 55.9084 144.166 59.7763V63.2925ZM75.1774 73.7006C72.0831 75.5291 68.4262 77.6388 63.2925 79.0453V71.7315C66.6681 70.536 69.1998 69.0592 71.5909 67.6527C75.3884 65.4023 78.975 63.2925 84.39 63.2925C89.805 63.2925 93.3213 65.4023 97.0485 67.6527C99.4396 69.0592 102.042 70.6063 105.488 71.8018V79.1156C100.213 77.6388 96.6266 75.5291 93.4619 73.6303C90.227 71.7315 87.8359 70.325 84.39 70.325C80.9441 70.325 78.4827 71.7315 75.1774 73.7006Z" fill="#FFF"/>
</svg>
