<svg width="169" height="169" viewBox="0 0 169 169" fill="none" xmlns="http://www.w3.org/2000/svg">
<path d="M84.467 91.4224C88.3509 91.4224 91.4995 88.2739 91.4995 84.3899C91.4995 80.506 88.3509 77.3574 84.467 77.3574C80.583 77.3574 77.4344 80.506 77.4344 84.3899C77.4344 88.2739 80.583 91.4224 84.467 91.4224Z" fill="#FFF"/>
<path d="M112.597 91.4224C116.481 91.4224 119.63 88.2739 119.63 84.3899C119.63 80.506 116.481 77.3574 112.597 77.3574C108.713 77.3574 105.565 80.506 105.565 84.3899C105.565 88.2739 108.713 91.4224 112.597 91.4224Z" fill="#FFF"/>
<path d="M56.3373 91.4224C60.2213 91.4224 63.3698 88.2739 63.3698 84.3899C63.3698 80.506 60.2213 77.3574 56.3373 77.3574C52.4534 77.3574 49.3048 80.506 49.3048 84.3899C49.3048 88.2739 52.4534 91.4224 56.3373 91.4224Z" fill="#FFF"/>
<path d="M134.187 34.6702C122.648 23.056 107.419 15.8316 91.1242 14.2425C74.8297 12.6533 58.4914 16.799 44.926 25.9649C31.3605 35.1307 21.4181 48.7423 16.8127 64.4529C12.2073 80.1636 13.2276 96.9887 19.6977 112.028C20.372 113.426 20.5933 114.999 20.3306 116.529L14.142 146.276C13.9036 147.417 13.9522 148.598 14.2837 149.715C14.6151 150.833 15.2189 151.85 16.0408 152.676C16.7145 153.344 17.5167 153.87 18.399 154.221C19.2813 154.571 20.2254 154.739 21.1745 154.715H22.581L52.6801 148.667C54.2099 148.483 55.7612 148.701 57.1809 149.3C72.2199 155.77 89.0451 156.79 104.756 152.185C120.466 147.58 134.078 137.637 143.244 124.072C152.41 110.506 156.555 94.168 154.966 77.8735C153.377 61.5791 146.153 46.3497 134.538 34.8108L134.187 34.6702ZM140.024 93.4619C138.649 101.859 135.387 109.834 130.485 116.788C125.582 123.742 119.166 129.494 111.719 133.61C104.272 137.726 95.9891 140.099 87.4926 140.551C78.9961 141.003 70.5077 139.522 62.6663 136.22C59.8852 135.037 56.8977 134.415 53.8756 134.391C52.5555 134.4 51.2383 134.518 49.9374 134.743L30.1058 138.751L34.1143 118.92C34.9127 114.625 34.398 110.189 32.6375 106.191C29.335 98.3493 27.854 89.861 28.3061 81.3645C28.7582 72.868 31.1315 64.5847 35.2475 57.138C39.3635 49.6913 45.115 43.2752 52.069 38.3725C59.023 33.4698 66.9984 30.2082 75.3951 28.8332C84.2088 27.3867 93.2401 28.0595 101.742 30.7957C110.244 33.532 117.973 38.2531 124.288 44.5687C130.604 50.8843 135.325 58.6127 138.061 67.1148C140.798 75.6169 141.47 84.6483 140.024 93.4619Z" fill="#FFF"/>
</svg>
