<svg width="169" height="169" viewBox="0 0 169 169" fill="none" xmlns="http://www.w3.org/2000/svg">
<path d="M63.408 77.3576C68.9716 77.3576 74.4102 75.7078 79.0362 72.6168C83.6621 69.5258 87.2676 65.1325 89.3967 59.9925C91.5258 54.8524 92.0829 49.1964 90.9975 43.7397C89.9121 38.283 87.233 33.2707 83.2989 29.3366C79.3648 25.4026 74.3526 22.7235 68.8959 21.6381C63.4392 20.5527 57.7832 21.1097 52.6431 23.2388C47.503 25.3679 43.1097 28.9734 40.0187 33.5994C36.9277 38.2253 35.278 43.664 35.278 49.2276C35.278 56.6881 38.2416 63.8431 43.517 69.1185C48.7924 74.3939 55.9474 77.3576 63.408 77.3576ZM63.408 35.1626C66.1898 35.1626 68.9091 35.9875 71.2221 37.5329C73.535 39.0784 75.3378 41.2751 76.4023 43.8451C77.4669 46.4152 77.7454 49.2432 77.2027 51.9715C76.66 54.6999 75.3205 57.206 73.3534 59.173C71.3864 61.14 68.8803 62.4796 66.1519 63.0223C63.4236 63.565 60.5956 63.2865 58.0255 62.2219C55.4555 61.1574 53.2588 59.3546 51.7133 57.0417C50.1679 54.7287 49.343 52.0094 49.343 49.2276C49.343 45.4973 50.8248 41.9198 53.4625 39.2821C56.1002 36.6444 59.6777 35.1626 63.408 35.1626Z" fill="#FFF"/>
<path d="M119.668 91.4227C123.841 91.4227 127.92 90.1853 131.389 87.8671C134.859 85.5489 137.563 82.2539 139.16 78.3988C140.756 74.5438 141.174 70.3018 140.36 66.2093C139.546 62.1167 137.537 58.3575 134.586 55.407C131.636 52.4564 127.877 50.4471 123.784 49.6331C119.691 48.819 115.449 49.2368 111.594 50.8336C107.739 52.4304 104.444 55.1346 102.126 58.604C99.8079 62.0735 98.5706 66.1525 98.5706 70.3252C98.5706 75.9206 100.793 81.2868 104.75 85.2434C108.706 89.1999 114.073 91.4227 119.668 91.4227ZM119.668 63.2927C121.059 63.2927 122.419 63.7051 123.575 64.4779C124.732 65.2506 125.633 66.3489 126.165 67.634C126.698 68.919 126.837 70.333 126.565 71.6972C126.294 73.0613 125.624 74.3144 124.641 75.2979C123.657 76.2814 122.404 76.9512 121.04 77.2226C119.676 77.4939 118.262 77.3546 116.977 76.8224C115.692 76.2901 114.593 75.3887 113.821 74.2322C113.048 73.0757 112.636 71.7161 112.636 70.3252C112.636 68.46 113.376 66.6713 114.695 65.3525C116.014 64.0336 117.803 63.2927 119.668 63.2927Z" fill="#FFF"/>
<path d="M119.668 98.4549C111.875 98.4636 104.305 101.061 98.1485 105.839C91.2603 98.9779 82.4946 94.3099 72.9568 92.424C63.4191 90.5381 53.5366 91.5187 44.5554 95.242C35.5742 98.9654 27.8967 105.265 22.491 113.346C17.0853 121.427 14.1936 130.928 14.1804 140.65C14.1804 142.515 14.9213 144.304 16.2402 145.623C17.559 146.942 19.3478 147.682 21.2129 147.682C23.0781 147.682 24.8668 146.942 26.1857 145.623C27.5045 144.304 28.2454 142.515 28.2454 140.65C28.2454 131.324 31.95 122.381 38.5443 115.786C45.1385 109.192 54.0823 105.487 63.4079 105.487C72.7336 105.487 81.6774 109.192 88.2716 115.786C94.8659 122.381 98.5705 131.324 98.5705 140.65C98.5705 142.515 99.3114 144.304 100.63 145.623C101.949 146.942 103.738 147.682 105.603 147.682C107.468 147.682 109.257 146.942 110.576 145.623C111.895 144.304 112.635 142.515 112.635 140.65C112.652 132.411 110.571 124.303 106.588 117.091C109.695 114.635 113.432 113.104 117.369 112.672C121.307 112.241 125.286 112.926 128.852 114.651C132.418 116.375 135.427 119.068 137.534 122.423C139.64 125.777 140.76 129.656 140.765 133.617C140.765 135.483 141.506 137.271 142.825 138.59C144.144 139.909 145.933 140.65 147.798 140.65C149.663 140.65 151.452 139.909 152.771 138.59C154.09 137.271 154.831 135.483 154.831 133.617C154.831 124.292 151.126 115.348 144.532 108.754C137.937 102.16 128.994 98.4549 119.668 98.4549Z" fill="#FFF"/>
</svg>
