<svg width="170" height="170" viewBox="0 0 170 170" fill="none" xmlns="http://www.w3.org/2000/svg">
<g clip-path="url(#clip0_76_544)">
<path d="M109.561 98.9863H104.005L102.036 97.0875C108.928 89.0705 113.077 78.6624 113.077 67.3401C113.077 42.0934 92.6125 21.6288 67.3658 21.6288C42.1192 21.6288 21.6546 42.0934 21.6546 67.3401C21.6546 92.5867 42.1192 113.051 67.3658 113.051C78.6882 113.051 89.0963 108.902 97.1133 102.01L99.0121 103.979V109.535L134.175 144.627L144.653 134.149L109.561 98.9863ZM67.3658 98.9863C49.8549 98.9863 35.7196 84.851 35.7196 67.3401C35.7196 49.8291 49.8549 35.6938 67.3658 35.6938C84.8768 35.6938 99.0121 49.8291 99.0121 67.3401C99.0121 84.851 84.8768 98.9863 67.3658 98.9863Z" fill="#FFF"/>
</g>
<defs>
<clipPath id="clip0_76_544">
<rect width="168.78" height="168.78" fill="white" transform="translate(0.557129 0.531372)"/>
</clipPath>
</defs>
</svg>
