<svg width="169" height="170" viewBox="0 0 169 170" fill="none" xmlns="http://www.w3.org/2000/svg">
<g clip-path="url(#clip0_76_549)">
<path d="M138.937 58.8921L100.68 16.6971C100.022 15.9685 99.2196 15.3857 98.3233 14.986C97.4271 14.5863 96.4571 14.3786 95.4757 14.3763H46.2482C43.9116 14.3485 41.5925 14.7811 39.4232 15.6496C37.2538 16.5181 35.2768 17.8054 33.605 19.438C31.9333 21.0706 30.5994 23.0165 29.6798 25.1647C28.7601 27.3128 28.2725 29.621 28.245 31.9576V137.445C28.2725 139.782 28.7601 142.09 29.6798 144.238C30.5994 146.386 31.9333 148.332 33.605 149.965C35.2768 151.597 37.2538 152.885 39.4232 153.753C41.5925 154.622 43.9116 155.054 46.2482 155.026H122.762C125.098 155.054 127.418 154.622 129.587 153.753C131.756 152.885 133.733 151.597 135.405 149.965C137.077 148.332 138.411 146.386 139.33 144.238C140.25 142.09 140.738 139.782 140.765 137.445V63.6039C140.76 61.861 140.109 60.1818 138.937 58.8921ZM98.57 35.4738L117.839 56.5714H103.774C103.038 56.5269 102.317 56.3362 101.655 56.0104C100.994 55.6846 100.403 55.2302 99.9187 54.6737C99.4342 54.1173 99.0655 53.4699 98.8339 52.7694C98.6024 52.0689 98.5126 51.3293 98.57 50.5937V35.4738ZM122.762 140.961H46.2482C45.7586 140.99 45.2681 140.921 44.805 140.76C44.3418 140.599 43.9151 140.347 43.5492 140.021C43.1834 139.694 42.8856 139.298 42.6729 138.856C42.4603 138.414 42.3369 137.935 42.31 137.445V31.9576C42.3369 31.4679 42.4603 30.9883 42.6729 30.5463C42.8856 30.1043 43.1834 29.7086 43.5492 29.382C43.9151 29.0553 44.3418 28.8041 44.805 28.6427C45.2681 28.4813 45.7586 28.4128 46.2482 28.4413H84.505V50.5937C84.3915 55.774 86.3317 60.7889 89.9022 64.5439C93.4728 68.2989 98.3837 70.489 103.563 70.6364H126.7V137.445C126.673 137.935 126.55 138.414 126.337 138.856C126.124 139.298 125.827 139.694 125.461 140.021C125.095 140.347 124.668 140.599 124.205 140.76C123.742 140.921 123.251 140.99 122.762 140.961Z" fill="#FFF"/>
<path d="M98.5707 91.7326H91.5382V84.7001C91.5382 82.835 90.7973 81.0462 89.4784 79.7274C88.1596 78.4085 86.3709 77.6676 84.5057 77.6676C82.6406 77.6676 80.8518 78.4085 79.533 79.7274C78.2141 81.0462 77.4732 82.835 77.4732 84.7001V91.7326H70.4407C68.5756 91.7326 66.7868 92.4735 65.468 93.7924C64.1491 95.1112 63.4082 96.9 63.4082 98.7651C63.4082 100.63 64.1491 102.419 65.468 103.738C66.7868 105.057 68.5756 105.798 70.4407 105.798H77.4732V112.83C77.4732 114.695 78.2141 116.484 79.533 117.803C80.8518 119.122 82.6406 119.863 84.5057 119.863C86.3709 119.863 88.1596 119.122 89.4784 117.803C90.7973 116.484 91.5382 114.695 91.5382 112.83V105.798H98.5707C100.436 105.798 102.225 105.057 103.543 103.738C104.862 102.419 105.603 100.63 105.603 98.7651C105.603 96.9 104.862 95.1112 103.543 93.7924C102.225 92.4735 100.436 91.7326 98.5707 91.7326Z" fill="#FFF"/>
</g>
<defs>
<clipPath id="clip0_76_549">
<rect width="168.78" height="168.78" fill="white" transform="translate(0.115601 0.311401)"/>
</clipPath>
</defs>
</svg>
