<svg width="169" height="169" viewBox="0 0 169 169" fill="none" xmlns="http://www.w3.org/2000/svg">
<g clip-path="url(#clip0_76_530)">
<path d="M91.1545 154.715H77.8631C74.7297 154.715 71.7246 153.47 69.5089 151.254C67.2932 149.039 66.0485 146.034 66.0485 142.9V135.235C66.0104 134.783 65.8447 134.352 65.5708 133.991C65.2969 133.63 64.926 133.354 64.5013 133.195C64.071 132.92 63.5707 132.773 63.0597 132.773C62.5486 132.773 62.0483 132.92 61.618 133.195L56.414 138.821C55.3223 139.921 54.024 140.793 52.5938 141.389C51.1635 141.984 49.6296 142.29 48.0804 142.29C46.5312 142.29 44.9973 141.984 43.5671 141.389C42.1368 140.793 40.8385 139.921 39.7469 138.821L30.1124 129.398C28.9972 128.308 28.1115 127.007 27.5075 125.569C26.9036 124.132 26.5937 122.588 26.5961 121.029C26.6007 117.84 27.8644 114.782 30.1124 112.52L35.3164 107.316C35.5677 106.928 35.7014 106.477 35.7014 106.015C35.7014 105.553 35.5677 105.101 35.3164 104.714C34.8945 103.659 34.1912 102.885 33.2067 102.885H26.0335C22.8937 102.867 19.8887 101.606 17.675 99.3796C15.4614 97.1527 14.2189 94.1403 14.2189 91.0004V77.709C14.2189 74.5756 15.4637 71.5705 17.6794 69.3548C19.895 67.1391 22.9001 65.8944 26.0335 65.8944H33.699C34.1506 65.8563 34.5821 65.6906 34.9432 65.4167C35.3042 65.1428 35.58 64.7719 35.7384 64.3472C36.0141 63.9169 36.1606 63.4166 36.1606 62.9056C36.1606 62.3945 36.0141 61.8942 35.7384 61.4639L30.1124 56.2598C29.0131 55.1682 28.1406 53.8699 27.5453 52.4397C26.9499 51.0094 26.6434 49.4755 26.6434 47.9263C26.6434 46.3771 26.9499 44.8432 27.5453 43.413C28.1406 41.9827 29.0131 40.6844 30.1124 39.5928L39.5359 29.9583C40.6147 28.8483 41.9046 27.9654 43.3298 27.3616C44.7549 26.7577 46.2865 26.445 47.8343 26.442C49.4254 26.435 51.0022 26.742 52.4744 27.3454C53.9467 27.9488 55.2854 28.8367 56.414 29.9583L61.618 35.1623C62.0054 35.4136 62.4573 35.5473 62.919 35.5473C63.3808 35.5473 63.8326 35.4136 64.22 35.1623C65.2749 34.7404 66.0485 34.0371 66.0485 33.0526V25.8794C66.0671 22.7395 67.3274 19.7346 69.5543 17.5209C71.7811 15.3073 74.7935 14.0648 77.9334 14.0648H91.5765C94.7099 14.0648 97.715 15.3096 99.9307 17.5252C102.146 19.7409 103.391 22.746 103.391 25.8794V33.5449C103.429 33.9965 103.595 34.428 103.869 34.7891C104.143 35.1501 104.514 35.4259 104.938 35.5843C105.369 35.86 105.869 36.0065 106.38 36.0065C106.891 36.0065 107.391 35.86 107.822 35.5843L112.674 29.9583C113.766 28.859 115.064 27.9865 116.494 27.3912C117.924 26.7958 119.458 26.4893 121.007 26.4893C122.557 26.4893 124.091 26.7958 125.521 27.3912C126.951 27.9865 128.249 28.859 129.341 29.9583L138.976 39.3818C140.088 40.4737 140.971 41.7759 141.575 43.2127C142.179 44.6495 142.49 46.1921 142.492 47.7505C142.526 49.3349 142.231 50.9091 141.626 52.3737C141.02 53.8384 140.118 55.1616 138.976 56.2598L133.771 61.4639C133.52 61.8513 133.387 62.3032 133.387 62.7649C133.387 63.2267 133.52 63.6785 133.771 64.0659C134.193 65.1208 134.897 65.8944 135.881 65.8944H143.547C146.6 66.0391 149.481 67.3548 151.589 69.5682C153.698 71.7816 154.872 74.7223 154.869 77.7793V91.4224C154.869 94.5558 153.624 97.5609 151.409 99.7766C149.193 101.992 146.188 103.237 143.054 103.237H135.389C134.937 103.275 134.506 103.441 134.145 103.715C133.784 103.989 133.508 104.359 133.35 104.784C133.098 105.172 132.965 105.623 132.965 106.085C132.965 106.547 133.098 106.999 133.35 107.386L138.765 112.801C139.864 113.893 140.736 115.191 141.332 116.621C141.927 118.052 142.234 119.585 142.234 121.135C142.234 122.684 141.927 124.218 141.332 125.648C140.736 127.078 139.864 128.377 138.765 129.468L129.552 138.821C128.473 139.931 127.183 140.814 125.758 141.418C124.333 142.022 122.801 142.335 121.254 142.338C118.113 142.296 115.112 141.035 112.885 138.821L107.47 133.617C107.083 133.366 106.631 133.232 106.169 133.232C105.707 133.232 105.255 133.366 104.868 133.617C103.813 134.039 103.039 134.743 103.039 135.727V143.393C102.895 146.446 101.579 149.326 99.3656 151.435C97.1523 153.544 94.2115 154.718 91.1545 154.715ZM80.1135 140.65H88.9744V135.235C89.0044 131.992 89.996 128.831 91.8238 126.152C93.6516 123.473 96.2333 121.396 99.2419 120.185C102.263 118.865 105.609 118.474 108.853 119.063C112.097 119.651 115.092 121.193 117.456 123.491L121.254 127.288L127.442 121.1L123.645 117.232C121.361 114.903 119.822 111.949 119.221 108.743C118.62 105.538 118.984 102.226 120.269 99.2284C121.491 96.2329 123.572 93.6661 126.25 91.8515C128.928 90.0368 132.084 89.0555 135.319 89.0313H140.804V79.9594H135.389C132.146 79.9294 128.985 78.9378 126.306 77.11C123.627 75.2822 121.55 72.7006 120.339 69.6919C119.019 66.671 118.628 63.3252 119.217 60.0812C119.805 56.8372 121.347 53.8421 123.645 51.4777L127.442 47.6802L121.254 41.4916L117.386 45.2891C115.021 47.4493 112.088 48.8887 108.933 49.438C105.777 49.9872 102.53 49.6235 99.5747 48.3895C96.6191 47.1555 94.0775 45.1027 92.2494 42.4727C90.4212 39.8428 89.3826 36.7453 89.2557 33.5449V28.1298H80.1135V33.5449C80.0835 36.7879 79.0919 39.9491 77.2641 42.6281C75.4364 45.3072 72.8547 47.3836 69.846 48.5944C66.8251 49.9149 63.4793 50.3057 60.2353 49.7171C56.9913 49.1284 53.9962 47.5869 51.6319 45.2891L47.8343 41.4916L41.6457 47.6802L45.4432 51.5481C47.6034 53.9129 49.0428 56.8458 49.5921 60.0012C50.1414 63.1567 49.7776 66.4034 48.5436 69.3591C47.3096 72.3147 45.2568 74.8563 42.6268 76.6844C39.9969 78.5126 36.8994 79.5512 33.699 79.6781H28.2839V88.539H33.699C36.942 88.569 40.1032 89.5606 42.7822 91.3884C45.4613 93.2162 47.5377 95.7978 48.7485 98.8065C50.069 101.827 50.4599 105.173 49.8712 108.417C49.2825 111.661 47.741 114.656 45.4432 117.021L41.6457 120.818L47.8343 127.007L51.7022 123.209C54.067 121.049 56.9999 119.61 60.1553 119.06C63.3108 118.511 66.5575 118.875 69.5132 120.109C72.4689 121.343 75.0104 123.396 76.8386 126.026C78.6667 128.656 79.7054 131.753 79.8322 134.954L80.1135 140.65Z" fill="#333"/>
<path d="M84.5444 109.004C79.6762 109.004 74.9174 107.56 70.8697 104.856C66.822 102.151 63.6672 98.307 61.8042 93.8094C59.9413 89.3119 59.4538 84.3628 60.4036 79.5882C61.3533 74.8136 63.6975 70.4279 67.1398 66.9856C70.5821 63.5433 74.9679 61.1991 79.7425 60.2493C84.5171 59.2996 89.4661 59.787 93.9637 61.65C98.4613 63.5129 102.305 66.6678 105.01 70.7155C107.715 74.7632 109.158 79.522 109.158 84.3902C109.158 90.9181 106.565 97.1787 101.949 101.795C97.333 106.411 91.0724 109.004 84.5444 109.004ZM84.5444 73.8414C82.458 73.8414 80.4186 74.4601 78.6838 75.6192C76.9491 76.7783 75.597 78.4258 74.7986 80.3533C74.0002 82.2809 73.7913 84.4019 74.1983 86.4481C74.6053 88.4944 75.61 90.374 77.0853 91.8493C78.5606 93.3245 80.4402 94.3292 82.4864 94.7362C84.5327 95.1432 86.6537 94.9343 88.5812 94.1359C90.5088 93.3375 92.1563 91.9855 93.3154 90.2507C94.4745 88.516 95.0931 86.4765 95.0931 84.3902C95.0931 81.5924 93.9818 78.9093 92.0035 76.9311C90.0252 74.9528 87.3421 73.8414 84.5444 73.8414Z" fill="#333"/>
</g>
<defs>
<clipPath id="clip0_76_530">
<rect width="168.78" height="168.78" fill="#333" transform="translate(0.154175)"/>
</clipPath>
</defs>
</svg>
