<svg width="170" height="170" viewBox="0 0 170 170" fill="none" xmlns="http://www.w3.org/2000/svg">
<g clip-path="url(#clip0_76_541)">
<path d="M69.1029 79.9281C67.7786 78.6039 65.9826 77.8599 64.1098 77.8599C62.237 77.8599 60.441 78.6039 59.1167 79.9281C57.7925 81.2524 57.0485 83.0484 57.0485 84.9212C57.0485 86.794 57.7925 88.59 59.1167 89.9143L80.2142 111.012C80.8714 111.664 81.6507 112.179 82.5075 112.529C83.3643 112.879 84.2818 113.057 85.2073 113.051C86.1701 113.021 87.1163 112.793 87.9873 112.381C88.8583 111.97 89.6355 111.384 90.2707 110.66L139.498 54.4001C140.635 52.9889 141.183 51.1934 141.028 49.3879C140.873 47.5825 140.028 45.9065 138.667 44.7094C137.307 43.5123 135.537 42.8865 133.727 42.9625C131.916 43.0385 130.205 43.8104 128.95 45.1172L85.2073 95.7513L69.1029 79.9281Z" fill="#00FF2B"/>
<path d="M148.5 77.8887C146.635 77.8887 144.846 78.6297 143.527 79.9485C142.208 81.2673 141.467 83.0561 141.467 84.9212C141.467 99.8423 135.54 114.152 124.989 124.703C114.438 135.254 100.128 141.181 85.2072 141.181C74.0964 141.176 63.236 137.881 53.9953 131.712C44.7545 125.543 37.5474 116.776 33.2826 106.516C29.0177 96.2568 27.8862 84.9641 30.0308 74.0623C32.1753 63.1605 37.4998 53.1377 45.3329 45.2579C50.5419 39.9792 56.7514 35.7925 63.5981 32.9427C70.4448 30.0929 77.7911 28.6374 85.2072 28.6612C89.7041 28.6894 94.1846 29.2081 98.5689 30.2083C99.4864 30.4921 100.452 30.585 101.407 30.4812C102.362 30.3774 103.285 30.0791 104.12 29.6048C104.955 29.1305 105.685 28.4901 106.263 27.7232C106.841 26.9563 107.256 26.0791 107.482 25.1457C107.708 24.2124 107.741 23.2425 107.577 22.2961C107.414 21.3496 107.059 20.4466 106.534 19.6427C106.008 18.8387 105.324 18.1509 104.523 17.6217C103.721 17.0924 102.82 16.7329 101.874 16.5653C96.411 15.2801 90.8195 14.6195 85.2072 14.5962C71.3133 14.6684 57.7522 18.8545 46.2351 26.6264C34.7181 34.3982 25.7612 45.4074 20.4949 58.2647C15.2286 71.122 13.8889 85.2512 16.6447 98.8692C19.4006 112.487 26.1286 124.984 35.9796 134.782C49.0368 147.845 66.7374 155.203 85.2072 155.246C103.859 155.246 121.746 147.837 134.934 134.649C148.123 121.46 155.532 103.573 155.532 84.9212C155.532 83.0561 154.791 81.2673 153.472 79.9485C152.154 78.6297 150.365 77.8887 148.5 77.8887Z" fill="#00FF2B"/>
</g>
<defs>
<clipPath id="clip0_76_541">
<rect width="168.78" height="168.78" fill="white" transform="translate(0.817139 0.531372)"/>
</clipPath>
</defs>
</svg>
