<svg width="169" height="170" viewBox="0 0 169 170" fill="none" xmlns="http://www.w3.org/2000/svg">
<g clip-path="url(#clip0_76_548)">
<path d="M133.695 49.5388H112.598V38.9901C112.598 34.3272 110.746 29.8554 107.448 26.5582C104.151 23.2611 99.6795 21.4088 95.0166 21.4088H73.9191C69.2563 21.4088 64.7844 23.2611 61.4873 26.5582C58.1902 29.8554 56.3379 34.3272 56.3379 38.9901V49.5388H35.2403C29.6449 49.5388 24.2787 51.7616 20.3221 55.7181C16.3656 59.6747 14.1428 65.0409 14.1428 70.6363V126.896C14.1428 132.492 16.3656 137.858 20.3221 141.815C24.2787 145.771 29.6449 147.994 35.2403 147.994H133.695C139.291 147.994 144.657 145.771 148.614 141.815C152.57 137.858 154.793 132.492 154.793 126.896V70.6363C154.793 65.0409 152.57 59.6747 148.614 55.7181C144.657 51.7616 139.291 49.5388 133.695 49.5388ZM105.565 63.6038V133.929H63.3704V63.6038H105.565ZM70.4029 38.9901C70.4029 38.0575 70.7733 37.1631 71.4327 36.5037C72.0922 35.8443 72.9865 35.4738 73.9191 35.4738H95.0166C95.9492 35.4738 96.8436 35.8443 97.503 36.5037C98.1624 37.1631 98.5329 38.0575 98.5329 38.9901V49.5388H70.4029V38.9901ZM28.2078 126.896V70.6363C28.2078 68.7712 28.9488 66.9825 30.2676 65.6636C31.5865 64.3448 33.3752 63.6038 35.2403 63.6038H49.3053V133.929H35.2403C33.3752 133.929 31.5865 133.188 30.2676 131.869C28.9488 130.55 28.2078 128.762 28.2078 126.896ZM140.728 126.896C140.728 128.762 139.987 130.55 138.668 131.869C137.349 133.188 135.561 133.929 133.695 133.929H119.63V63.6038H133.695C135.561 63.6038 137.349 64.3448 138.668 65.6636C139.987 66.9825 140.728 68.7712 140.728 70.6363V126.896Z" fill="#FFF"/>
</g>
<defs>
<clipPath id="clip0_76_548">
<rect width="168.78" height="168.78" fill="white" transform="translate(0.0771484 0.311401)"/>
</clipPath>
</defs>
</svg>
