<svg width="169" height="170" viewBox="0 0 169 170" fill="none" xmlns="http://www.w3.org/2000/svg">
<g clip-path="url(#clip0_76_547)">
<path d="M147.722 86.2485C147.722 47.6401 117.763 21.4088 84.4293 21.4088C51.4468 21.4088 21.1368 47.0774 21.1368 86.6704C16.9172 89.0615 14.1042 93.5623 14.1042 98.7663V112.831C14.1042 120.567 20.4335 126.896 28.1693 126.896H35.2018V83.9981C35.2018 56.7823 57.2135 34.7706 84.4293 34.7706C111.645 34.7706 133.657 56.7823 133.657 83.9981V133.929H77.3968V147.994H133.657C141.393 147.994 147.722 141.665 147.722 133.929V125.349C151.871 123.169 154.754 118.879 154.754 113.816V97.6412C154.754 92.7184 151.871 88.4286 147.722 86.2485Z" fill="#FFF"/>
<path d="M63.3317 98.7664C67.2156 98.7664 70.3642 95.6179 70.3642 91.7339C70.3642 87.85 67.2156 84.7014 63.3317 84.7014C59.4478 84.7014 56.2992 87.85 56.2992 91.7339C56.2992 95.6179 59.4478 98.7664 63.3317 98.7664Z" fill="#FFF"/>
<path d="M105.527 98.7664C109.411 98.7664 112.559 95.6179 112.559 91.7339C112.559 87.85 109.411 84.7014 105.527 84.7014C101.643 84.7014 98.4943 87.85 98.4943 91.7339C98.4943 95.6179 101.643 98.7664 105.527 98.7664Z" fill="#FFF"/>
<path d="M126.623 77.8799C123.247 57.8373 105.806 42.5065 84.7792 42.5065C63.4707 42.5065 40.5447 60.158 42.3732 87.8661C59.7435 80.7633 72.8239 65.2918 76.5511 46.4447C85.7637 64.9401 104.681 77.669 126.623 77.8799Z" fill="#FFF"/>
</g>
<defs>
<clipPath id="clip0_76_547">
<rect width="168.78" height="168.78" fill="white" transform="translate(0.0385742 0.311401)"/>
</clipPath>
</defs>
</svg>
