<svg width="170" height="170" viewBox="0 0 170 170" fill="none" xmlns="http://www.w3.org/2000/svg">
<g clip-path="url(#clip0_76_539)">
<path d="M125.177 85.311L153.167 57.3217C155.91 54.579 155.91 50.1485 153.167 47.4058L122.646 16.8848C119.903 14.1421 115.473 14.1421 112.73 16.8848L84.7406 44.8741L56.7512 16.8848C55.3447 15.5486 53.5866 14.8453 51.7582 14.8453C50 14.8453 48.1716 15.5486 46.8354 16.8848L16.3143 47.4058C13.5717 50.1485 13.5717 54.579 16.3143 57.3217L44.3037 85.311L16.3143 113.3C13.5717 116.043 13.5717 120.474 16.3143 123.216L46.8354 153.737C49.5781 156.48 54.0086 156.48 56.7512 153.737L84.7406 125.748L112.73 153.737C114.136 155.144 115.895 155.777 117.723 155.777C119.551 155.777 121.31 155.073 122.716 153.737L153.237 123.216C155.98 120.474 155.98 116.043 153.237 113.3L125.177 85.311ZM84.8812 64.0729C88.7491 64.0729 91.9137 67.2375 91.9137 71.1054C91.9137 74.9733 88.7491 78.1379 84.8812 78.1379C81.0134 78.1379 77.8487 74.9733 77.8487 71.1054C77.8487 67.2375 81.0134 64.0729 84.8812 64.0729ZM51.7582 77.8566L26.2302 52.3989L51.7582 26.8709L77.2158 52.3286L51.7582 77.8566ZM70.8162 92.2029C66.9484 92.2029 63.7837 89.0383 63.7837 85.1704C63.7837 81.3025 66.9484 78.1379 70.8162 78.1379C74.6841 78.1379 77.8487 81.3025 77.8487 85.1704C77.8487 89.0383 74.6841 92.2029 70.8162 92.2029ZM84.8812 106.268C81.0134 106.268 77.8487 103.103 77.8487 99.2354C77.8487 95.3675 81.0134 92.2029 84.8812 92.2029C88.7491 92.2029 91.9137 95.3675 91.9137 99.2354C91.9137 103.103 88.7491 106.268 84.8812 106.268ZM98.9463 78.1379C102.814 78.1379 105.979 81.3025 105.979 85.1704C105.979 89.0383 102.814 92.2029 98.9463 92.2029C95.0784 92.2029 91.9137 89.0383 91.9137 85.1704C91.9137 81.3025 95.0784 78.1379 98.9463 78.1379ZM117.653 143.821L92.1247 118.364L117.653 92.8358L143.11 118.293L117.653 143.821Z" fill="#FFF"/>
</g>
<defs>
<clipPath id="clip0_76_539">
<rect width="168.78" height="168.78" fill="white" transform="translate(0.491455 0.780273)"/>
</clipPath>
</defs>
</svg>
